<svg id="Capa_1" enable-background="new 0 0 512 512" height="512" viewBox="0 0 512 512" width="512" xmlns="http://www.w3.org/2000/svg"><g><g><path d="m431.768 110.537h-351.536c-5.579 0-10.102-4.523-10.102-10.102v-20.203c0-5.579 4.523-10.102 10.102-10.102h351.537c5.579 0 10.102 4.523 10.102 10.102v20.203c-.001 5.579-4.524 10.102-10.103 10.102z" fill="#544f57"/></g><g><path d="m431.768 70.13h-31.315c5.579 0 10.102 4.523 10.102 10.102v20.203c0 5.579-4.523 10.102-10.102 10.102h31.315c5.579 0 10.102-4.523 10.102-10.102v-20.203c0-5.579-4.523-10.102-10.102-10.102z" fill="#454045"/></g><g><path d="m94.374 110.537 19.22 374.795c.551 10.742 9.421 19.169 20.177 19.169h244.458c10.756 0 19.626-8.427 20.177-19.169l19.22-374.795z" fill="#f1d59d"/></g><g><path d="m383.28 110.537-19.22 374.795c-.551 10.742-9.421 19.169-20.177 19.169h34.346c10.756 0 19.626-8.427 20.177-19.169l19.22-374.795z" fill="#efcb84"/></g><g><path d="m402.344 408.535 10.361-202.033h-313.41l10.361 202.033z" fill="#f9efda"/></g><g><path d="m367.999 408.535h34.345l1.453-28.336 8.908-173.697h-34.346z" fill="#f4ddb1"/></g><g><path d="m250.666 11.411-19.638 14.401c-3.465 2.541-7.65 3.911-11.947 3.911h-114.605c-5.579 0-10.102 4.523-10.102 10.102v30.305h323.252v-52.528c0-5.579-4.523-10.102-10.102-10.102h-144.91c-4.297 0-8.482 1.37-11.948 3.911z" fill="#efecef"/></g><g><path d="m94.374 48.917h323.252v21.213h-323.252z" fill="#d3ced5"/></g><g><g><ellipse cx="256" cy="307.518" fill="#b78e8e" rx="55.559" ry="40.407" transform="matrix(.707 -.707 .707 .707 -142.468 271.089)"/></g></g><g><path d="m431.769 62.63h-6.643v-45.028c0-9.706-7.897-17.602-17.602-17.602h-144.91c-5.933 0-11.598 1.854-16.384 5.363l-19.638 14.401c-2.193 1.609-4.791 2.459-7.512 2.459h-32.135c-4.143 0-7.5 3.358-7.5 7.5s3.357 7.5 7.5 7.5h32.135c5.934 0 11.599-1.854 16.383-5.363l19.637-14.401c2.194-1.609 4.793-2.459 7.514-2.459h144.91c1.435 0 2.602 1.167 2.602 2.602v45.028h-308.252v-22.805c0-1.435 1.167-2.602 2.602-2.602h47.274c4.143 0 7.5-3.358 7.5-7.5s-3.357-7.5-7.5-7.5h-47.274c-9.705 0-17.602 7.896-17.602 17.602v22.805h-6.643c-9.705 0-17.602 7.896-17.602 17.602v20.203c0 9.706 7.896 17.602 17.602 17.602h7.017l18.855 367.68c.757 14.738 12.911 26.283 27.668 26.283h35.658c4.143 0 7.5-3.358 7.5-7.5s-3.357-7.5-7.5-7.5h-35.658c-6.767 0-12.34-5.294-12.687-12.053l-3.534-68.913h276.9l-3.534 68.912c-.347 6.759-5.92 12.053-12.687 12.053h-173.604c-4.143 0-7.5 3.358-7.5 7.5s3.357 7.5 7.5 7.5h173.604c14.757 0 26.91-11.545 27.667-26.284l18.855-367.679h7.017c9.705 0 17.602-7.896 17.602-17.602v-20.202c0-9.706-7.896-17.602-17.601-17.602zm-314.988 338.405-9.591-187.033h297.62l-9.591 187.033zm317.589-300.6c0 1.435-1.167 2.602-2.602 2.602h-49.84c-4.143 0-7.5 3.358-7.5 7.5s3.357 7.5 7.5 7.5h27.803l-4.152 80.967c-.011 0-.021-.002-.032-.002h-299.094c-.011 0-.021.002-.032.002l-4.152-80.967h244.49c4.143 0 7.5-3.358 7.5-7.5s-3.357-7.5-7.5-7.5h-266.528c-1.435 0-2.602-1.167-2.602-2.602v-20.203c0-1.435 1.167-2.602 2.602-2.602h351.537c1.435 0 2.602 1.167 2.602 2.602z"/><path d="m300.59 262.929c-9.373-9.373-22.927-13.209-38.184-10.802-14.37 2.269-28.676 9.91-40.281 21.516-11.605 11.605-19.247 25.911-21.516 40.281-2.408 15.25 1.428 28.81 10.801 38.183 7.546 7.546 17.805 11.503 29.476 11.503 2.825 0 5.734-.232 8.708-.702 14.37-2.269 28.676-9.91 40.281-21.516 11.605-11.605 19.247-25.911 21.516-40.281 2.408-15.249-1.428-28.809-10.801-38.182zm-85.164 53.335c1.778-11.263 7.925-22.633 17.307-32.014 9.381-9.382 20.75-15.528 32.014-17.306 2.163-.341 4.264-.51 6.289-.51 4.725 0 9.03.923 12.73 2.712l-66.138 66.137c-2.556-5.286-3.341-11.808-2.202-19.019zm81.148-17.492c-1.778 11.263-7.925 22.633-17.307 32.014-9.381 9.382-20.75 15.528-32.014 17.306-7.209 1.138-13.732.353-19.019-2.203l66.137-66.137c2.557 5.288 3.342 11.81 2.203 19.02z"/></g></g></svg>