<svg height="480pt" viewBox="-56 0 480 480" width="480pt" xmlns="http://www.w3.org/2000/svg"><path d="m215.839844 189.039062c-20.695313-6.71875-42.984375-6.71875-63.679688 0-26.085937 8.324219-47.804687 26.648438-60.398437 50.960938h184.476562c-12.59375-24.3125-34.3125-42.636719-60.398437-50.960938zm0 0" fill="#a0815c"/><path d="m360 240h-352v96h352zm0 0" fill="#a0815c"/><path d="m184 56c26.507812 0 48-21.492188 48-48h-96c0 26.507812 21.492188 48 48 48zm0 0" fill="#544028"/><path d="m215.839844 189.039062c-1.640625-16.351562-15.40625-28.804687-31.839844-28.804687s-30.199219 12.453125-31.839844 28.804687c20.695313-6.71875 42.984375-6.71875 63.679688 0zm0 0" fill="#64513a"/><path d="m8 240h352v16h-352zm0 0" fill="#64513a"/><path d="m184 392c38.796875.039062 74.375-21.5625 92.238281-56h-184.476562c17.863281 34.4375 53.441406 56.039062 92.238281 56zm0 0" fill="#fff98e"/><g fill="#231f20"><path d="m360 232h-79.199219c-13.046875-22.539062-33.546875-39.824219-57.96875-48.871094-3.363281-15.382812-15.539062-27.300781-30.992187-30.328125.070312-.265625.125-.53125.160156-.800781v-88.640625c27.515625-3.992187 47.945312-27.554687 48-55.359375 0-4.417969-3.582031-8-8-8h-96c-4.417969 0-8 3.582031-8 8 .054688 27.804688 20.484375 51.367188 48 55.359375v88.640625c.035156.269531.089844.535156.160156.800781-15.472656 3.019531-27.664062 14.949219-31.015625 30.351563-24.40625 9.054687-44.894531 26.328125-57.945312 48.847656h-79.199219c-4.417969 0-8 3.582031-8 8v96c0 4.417969 3.582031 8 8 8h79.089844c19.96875 34.648438 56.917968 56 96.910156 56s76.941406-21.351562 96.910156-56h79.089844c4.417969 0 8-3.582031 8-8v-96c0-4.417969-3.582031-8-8-8zm-215.199219-216h78.398438c-3.785157 18.644531-20.175781 32.039062-39.199219 32.039062s-35.414062-13.394531-39.199219-32.039062zm39.199219 152c7.621094-.039062 14.800781 3.554688 19.335938 9.679688-.398438-.070313-.800782-.09375-1.199219-.160157-1.328125-.214843-2.664063-.351562-4-.519531-1.753907-.222656-3.496094-.480469-5.265625-.617188-.800782-.0625-1.597656-.054687-2.398438-.101562-2.152344-.128906-4.304687-.28125-6.472656-.28125s-4.105469.152344-6.144531.265625c-.925781.046875-1.855469.046875-2.777344.117187-1.664063.136719-3.300781.378907-4.949219.578126-1.449218.183593-2.898437.335937-4.335937.566406-.367188.066406-.753907.089844-1.128907.152344 4.535157-6.125 11.714844-9.71875 19.335938-9.679688zm-29.351562 28.640625c14.277343-4.605469 29.4375-5.792969 44.253906-3.464844 4.925781.769531 9.78125 1.9375 14.523437 3.488281 19.542969 6.28125 36.554688 18.664063 48.535157 35.335938h-155.921876c12-16.6875 29.039063-29.082031 48.609376-35.359375zm29.351562 187.359375c-30.9375.078125-59.996094-14.828125-77.984375-40h156c-17.992187 25.179688-47.066406 40.089844-78.015625 40zm168-56h-336v-80h336zm0 0"/><path d="m184 416c-4.417969 0-8 3.582031-8 8v48c0 4.417969 3.582031 8 8 8s8-3.582031 8-8v-48c0-4.417969-3.582031-8-8-8zm0 0"/><path d="m258.929688 401.785156c-1.421876-2.496094-4.066407-4.039062-6.9375-4.046875-2.871094-.007812-5.527344 1.527344-6.957032 4.015625-1.429687 2.488282-1.414062 5.554688.035156 8.03125l24 41.597656c1.421876 2.496094 4.066407 4.039063 6.9375 4.046876 2.871094.007812 5.527344-1.527344 6.957032-4.015626 1.429687-2.488281 1.414062-5.554687-.035156-8.03125zm0 0"/><path d="m347.351562 373.070312-41.597656-24c-2.476562-1.449218-5.542968-1.464843-8.03125-.035156-2.492187 1.429688-4.023437 4.085938-4.015625 6.957032.003907 2.871093 1.550781 5.515624 4.046875 6.9375l41.597656 24c3.824219 2.171874 8.683594.851562 10.882813-2.957032s.910156-8.675781-2.882813-10.902344zm0 0"/><path d="m62.214844 349.070312-41.597656 24c-2.496094 1.421876-4.039063 4.066407-4.046876 6.9375-.007812 2.871094 1.527344 5.527344 4.015626 6.957032 2.488281 1.429687 5.554687 1.414062 8.03125-.035156l41.597656-24c2.496094-1.421876 4.039062-4.066407 4.046875-6.9375.007812-2.871094-1.527344-5.527344-4.015625-6.957032-2.488282-1.429687-5.554688-1.414062-8.03125.035156zm0 0"/><path d="m120 398.847656c-3.828125-2.207031-8.722656-.894531-10.929688 2.9375l-24 41.597656c-1.449218 2.476563-1.464843 5.542969-.035156 8.03125 1.429688 2.488282 4.085938 4.023438 6.957032 4.015626 2.871093-.007813 5.515624-1.550782 6.9375-4.046876l24-41.558593c1.074218-1.84375 1.371093-4.039063.820312-6.097657-.550781-2.0625-1.898438-3.816406-3.75-4.878906zm0 0"/></g></svg>